<svg xmlns="http://www.w3.org/2000/svg" viewBox="0 0 64 64" id="signal">
  <defs>
    <linearGradient id="a" x1="4" x2="60" y1="32" y2="32" gradientUnits="userSpaceOnUse">
      <stop offset="0" stop-color="#9cffac"></stop>
      <stop offset="1" stop-color="#00b59c"></stop>
    </linearGradient>
  </defs>
  <path fill="url(#a)" d="M45.27,18.22V54.09a5.91,5.91,0,1,1-11.82,0V18.22a5.91,5.91,0,0,1,11.82,0ZM9.91,28.92A5.91515,5.91515,0,0,0,4,34.83V54.09a5.91,5.91,0,1,0,11.82,0V34.83A5.91518,5.91518,0,0,0,9.91,28.92ZM54.09,4a5.91513,5.91513,0,0,0-5.91,5.91V54.09a5.91,5.91,0,1,0,11.82,0V9.91A5.91511,5.91511,0,0,0,54.09,4ZM24.64,20.62a5.913,5.913,0,0,0-5.91,5.9V54.09a5.91,5.91,0,1,0,11.82,0V26.52A5.913,5.913,0,0,0,24.64,20.62Z"></path>
</svg>
